PathFileType	4	(X/Y/Z)	C:/Users/beibeiliu/ov580/test_trc\sequence.3_training_dense_left.trc
DataRate	CameraRate	NumFrames	NumMarkers	Units	OrigDataRate	OrigDataStartFrame	OrigNumFrames
120	120	23	19	mm	120	240	319
Frame#	Time	ThumbCMC			ThumbMCP			ThumbIP			ThumbTip			IndexMCP			IndexPIP			IndexTip			MiddleMCP			MiddlePIP			MiddleTip			RingMCP			RingPIP			RingTip			PinkyMCP			PinkyPIP			PinkyTip			BackHand1			BackHand2			BackHand3	
		X0	Y0	Z0	X1	Y1	Z1	X2	Y2	Z2	X3	Y3	Z3	X4	Y4	Z4	X5	Y5	Z5	X6	Y6	Z6	X7	Y7	Z7	X8	Y8	Z8	X9	Y9	Z9	X10	Y10	Z10	X11	Y11	Z11	X12	Y12	Z12	X13	Y13	Z13	X14	Y14	Z14	X15	Y15	Z15	X16	Y16	Z16	X17	Y17	Z17	X18	Y18	Z18	
239	1.99167	-195.091	0.685649	-6.27611	-185.589	9.09326	-36.917	-171.833	4.8607	-58.5122	-149.254	-3.49983	-70.9444	-180.333	-15.8396	-67.6683	-177.937	9.85339	-75.1549	-181.141	10.0255	-43.8587	-162.609	-17.4196	-70.0677	-153.808	9.74621	-78.0702	-158.865	26.8472	-50.01	-144.53	-6.39658	-56.1528	-150.126	17.7995	-44.2605	-156.71	6.17126	-22.6864	-134.431	-11.7099	-45.4137	-139.518	14.4396	-39.1669	-149.898	6.89805	-20.8955	-153.774	-35.4684	-17.6354	-157.906	-35.7318	12.2773	-182.918	-32.7813	-6.17721	
240	2	-192.962	2.05805	-7.37419	-186.991	12.1619	-35.727	-174.041	4.73169	-58.826	-152.994	-7.14371	-66.292	-182.576	-17.8705	-65.6918	-175.549	7.96275	-72.7802	-181.109	12.3961	-46.8498	-162.189	-19.3594	-70.9438	-156.674	3.40023	-80.6151	-159.964	25.7342	-52.4941	-149.429	-8.25254	-57.5086	-149.885	14.8966	-47.2958	-157.662	2.51613	-21.7257	-131.339	-12.1237	-49.3988	-136.823	11.0789	-43.6356	-149.916	5.72904	-22.071	-154.712	-36.942	-13.3379	-160.301	-31.7316	11.4936	-184.965	-31.1058	-3.68544	
241	2.00833	-189.339	5.06678	-1.24477	-185.797	12.0214	-35.8294	-175.586	0.323186	-60.0108	-157.992	-9.60164	-66.7913	-189.433	-18.7209	-63.292	-180.69	3.10526	-75.4915	-179.86	10.8673	-46.9961	-171.327	-24.2253	-67.1118	-162.788	1.04075	-81.7086	-158.692	22.6034	-57.598	-150.879	-13.2845	-58.085	-148.181	13.1804	-45.8852	-159.851	0.417052	-23.0739	-134.463	-18.7236	-49.1291	-138.153	6.20135	-45.713	-146.293	3.77162	-22.9684	-158.595	-38.0438	-10.9093	-158.994	-31.2827	14.7116	-183.497	-29.1031	-3.80216	
242	2.01667	-189.995	8.94099	-2.57344	-184.342	8.52778	-34.3726	-177.915	0.133771	-57.9087	-160.658	-16.3118	-71.2597	-194.5	-17.795	-63.8344	-181.43	2.65457	-73.0546	-180.199	9.27947	-44.0886	-175.108	-26.3641	-66.6862	-166.896	-1.07854	-81.1975	-157.24	18.159	-60.2772	-151.468	-19.1489	-57.5588	-152.722	8.01623	-49.2782	-158.097	-1.15869	-21.9244	-141.184	-25.1515	-50.4617	-142.009	-0.65772	-50.812	-147.128	0.979477	-23.7014	-166.003	-36.7266	-10.1357	-162.681	-29.3438	16.6998	-189.268	-26.0479	-0.0444599	
243	2.025	-187.705	10.3046	-1.19891	-185.478	12.6889	-34.5644	-178.84	-2.06604	-54.914	-165.98	-17.3069	-68.4894	-196.378	-18.9749	-60.3877	-182.665	-0.183694	-72.7986	-181.426	10.1006	-42.8793	-181.349	-26.5555	-64.9584	-167.593	-6.61142	-81.3306	-155.864	14.3096	-59.0167	-157.088	-23.0276	-54.6494	-153.051	3.43512	-53.6083	-158.131	-2.38499	-22.2901	-145.78	-28.1986	-51.2254	-141.195	-5.14218	-51.8891	-147.841	-1.69547	-27.5199	-169.572	-37.4449	-11.9314	-166.544	-30.1451	16.379	-186.913	-25.1808	3.85353	
244	2.03333	-184.763	11.31	-1.69692	-185.676	16.5557	-33.6282	-181.238	1.50264	-52.9595	-169.541	-19.5876	-68.9248	-200.909	-14.7483	-56.0582	-185.431	0.970803	-72.945	-183.279	13.1121	-43.3178	-186.88	-25.1428	-63.7739	-169.777	-8.3561	-80.0058	-155.788	12.7846	-59.3255	-163.323	-22.0567	-56.3355	-153.206	3.41083	-50.0195	-156.178	-2.46321	-22.5907	-150.111	-32.5796	-49.652	-141.706	-10.0879	-54.2139	-147.616	-2.06195	-28.1351	-168.962	-38.5635	-8.03145	-167.492	-32.231	15.4135	-191.234	-17.2488	6.49614	
245	2.04167	-182.403	16.0975	2.51176	-186.227	17.7431	-35.3905	-182.888	6.12086	-53.3721	-173.671	-12.5285	-65.5257	-202.718	-8.67953	-57.0598	-186.79	7.00502	-69.8405	-181.948	15.2551	-40.6403	-191.674	-19.4532	-59.7651	-173.034	-4.32539	-78.7644	-154.144	11.6491	-56.5853	-169.155	-20.4785	-57.9733	-152.336	0.902479	-52.3125	-154.167	-1.06488	-26.5339	-154.492	-35.3956	-50.4535	-147.563	-11.6978	-56.0956	-149.076	-2.75535	-29.9726	-176.184	-37.6673	-11.1327	-169.359	-30.879	15.4654	-192.584	-15.2869	6.70364	
246	2.05	-180.925	19.0279	1.41256	-183.435	21.7416	-33.0291	-181.262	12.2381	-50.3898	-175.096	-6.44903	-66.0767	-204.452	-1.40437	-57.1337	-185.314	13.0112	-67.6736	-178.36	12.8779	-39.3469	-195.25	-12.8665	-60.85	-171.734	3.02225	-74.8471	-156.289	12.4433	-51.5498	-172.985	-25.0009	-58.2288	-157.239	0.3813	-55.6037	-155.508	-3.42679	-27.7481	-163.785	-33.0183	-53.7081	-151.318	-11.7485	-54.8215	-151.105	-6.43767	-33.9885	-184.904	-34.5338	-11.4329	-172.028	-30.7347	16.6728	-194.885	-13.2296	3.79695	
247	2.05833	-175.659	16.3708	0.555951	-170.174	22.823	-29.2816	-174.003	20.001	-55.0173	-169.308	4.76521	-71.2026	-206.909	9.30612	-53.9973	-183.499	16.9209	-65.8405	-174.465	17.1435	-36.9778	-196.413	-6.74914	-60.0081	-171.87	4.41151	-69.2829	-163.096	2.57844	-36.4072	-181.393	-23.5734	-58.1324	-156.913	-7.3946	-58.4765	-155.62	-6.60886	-29.4461	-170.961	-36.5606	-53.2035	-156.144	-16.3301	-55.6198	-154.552	-8.25744	-31.8634	-188.971	-36.3927	-11.2233	-178.534	-32.8101	15.0649	-193.582	-12.0308	8.7978	
248	2.06667	-170.797	17.4599	0.961492	-164.054	22.5876	-28.8583	-164.926	21.5299	-51.9395	-165.619	4.84714	-73.919	-202.553	11.7297	-50.3997	-178.317	18.8191	-63.2266	-168.823	12.6178	-35.1141	-196.185	-5.99018	-58.7719	-168.311	5.85969	-64.8557	-163.925	2.00526	-35.0905	-186.422	-20.1745	-57.1751	-161.977	-6.59745	-59.3694	-155.845	-5.69254	-33.4069	-177.711	-36.2108	-52.2733	-158.055	-20.6949	-54.7859	-153.923	-15.6022	-27.5099	-194.515	-30.9074	-10.8553	-183.922	-32.0154	16.4362	-192.502	-8.68436	8.0978	
249	2.075	-168.02	15.459	0.985627	-159.768	20.551	-28.882	-162.193	19.476	-54.9504	-161.882	6.16767	-74.5028	-199.204	16.2593	-52.8272	-176.392	18.3206	-63.5481	-165.148	14.1491	-35.9014	-196.185	-1.70048	-56.175	-169.184	1.04584	-66.5802	-163.995	-4.2837	-34.0561	-188.067	-19.3081	-57.0798	-160.326	-10.3626	-58.0264	-157.839	-11.9768	-28.9926	-182.086	-33.9965	-53.2818	-159.148	-25.4318	-55.3223	-153.292	-20.4216	-28.9826	-198.677	-33.083	-9.20071	-184.92	-31.6556	16.0329	-193.595	-4.90687	11.4129	
250	2.08333	-164.815	8.83459	3.02555	-154.825	18.0173	-28.0591	-159.336	16.1949	-52.2774	-162.337	3.75407	-69.6069	-196.165	22.4457	-48.9946	-174.2	16.1582	-65.4544	-161.514	9.89536	-33.9376	-194	2.27212	-59.9845	-167.113	2.73425	-67.0594	-157.447	-7.05199	-39.4914	-188.422	-15.5798	-55.4355	-160.85	-16.9369	-58.7592	-156.291	-16.1393	-32.1041	-185.771	-33.0381	-50.5747	-160.909	-28.259	-53.6149	-154.333	-24.868	-29.8179	-200.451	-25.502	-6.64602	-187.883	-30.8808	17.388	-191.234	-5.58527	10.776	
251	2.09167	-157.234	8.35444	9.13274	-152.225	16.5918	-22.4595	-163.169	10.7889	-46.4969	-174.345	-4.6495	-61.1511	-189.93	22.4407	-49.2899	-169.226	17.8256	-65.5022	-153.066	11.1108	-42.8349	-189.71	7.31649	-56.7973	-166.839	1.63942	-71.9823	-147.27	-8.55296	-48.9001	-185.917	-14.0658	-58.0366	-159.434	-15.5364	-58.4345	-156.641	-20.7415	-29.985	-186.985	-31.1477	-48.3908	-161.913	-29.8362	-53.6571	-156.735	-26.8762	-25.3216	-201.633	-20.1253	-7.76861	-191.789	-29.6867	19.088	-191.923	-4.71877	11.0232	
252	2.1	-154.804	1.45294	10.3012	-151.987	15.4648	-23.4927	-161.321	11.3375	-43.9396	-175.016	-5.09693	-59.6824	-182.631	24.9312	-44.7502	-163.1	14.3684	-66.1073	-143.94	2.95742	-46.5725	-187.853	7.41921	-57.9696	-165.107	2.55413	-73.0446	-143.136	-11.2014	-49.0151	-185.336	-12.8559	-55.8871	-161.079	-18.2742	-59.1706	-155.816	-25.5276	-31.789	-187.562	-32.9	-52.2821	-162.094	-29.9913	-49.5637	-159.944	-28.4582	-25.1706	-199.372	-18.5589	-5.92447	-193.392	-27.3264	19.3674	-187.91	-1.14261	12.6418	
253	2.10833	-147.959	0.904623	10.9244	-147.447	9.8685	-21.1554	-157.838	11.492	-45.237	-174.509	-4.81478	-61.0144	-178.12	22.7496	-48.3109	-159.685	17.3924	-66.4013	-138.06	1.15797	-51.5347	-184.163	10.0771	-57.4617	-164.147	2.9698	-73.9357	-145.066	-14.9508	-52.6245	-183.738	-13.3738	-57.9337	-160.623	-23.551	-57.8531	-158.63	-26.6158	-27.9297	-188.982	-30.0771	-51.2708	-163.526	-32.9482	-48.8253	-158.497	-34.059	-25.4956	-201.629	-14.7918	-8.04417	-195.562	-25.1146	16.9539	-182.031	2.09739	11.205	
254	2.11667	-150.863	-1.43593	6.82333	-143.245	8.66912	-23.8311	-153.944	8.73243	-44.5647	-175.394	-7.11059	-58.999	-170.872	25.0278	-46.0482	-153.869	14.8736	-66.6057	-136.774	-5.86069	-49.4062	-184.343	8.96136	-54.1004	-162.311	-0.67937	-74.2701	-143.888	-19.7915	-48.8912	-185.292	-11.8837	-55.8006	-158.637	-23.7046	-56.0387	-159.816	-29.0777	-28.3924	-190.742	-30.7609	-50.8421	-166.188	-33.7645	-49.8823	-161.593	-33.0706	-23.4205	-199.683	-11.3428	-7.6296	-192.772	-23.7028	16.6126	-179.655	0.561651	12.7858	
255	2.125	-150.116	-5.66748	5.65417	-141.317	3.90511	-22.1932	-151.343	6.53209	-45.604	-174.04	-8.03596	-57.6213	-168.088	23.7928	-46.4949	-151.977	8.60513	-68.0569	-138.322	-11.3315	-53.8931	-177.122	11.9599	-56.5106	-162.68	-3.90024	-74.1323	-147.015	-24.343	-51.5207	-183.235	-9.04827	-55.5834	-160.894	-27.8694	-57.0461	-159.142	-28.9965	-27.9375	-188.939	-27.498	-53.0778	-169.157	-39.2363	-50.3433	-164.468	-37.1179	-22.0564	-198.338	-10.2493	-8.51057	-193.503	-22.4144	16.5705	-180.587	-1.79538	12.3253	
256	2.13333	-145.72	-8.74237	8.19823	-138.015	2.16406	-23.1656	-152.813	4.28335	-43.3775	-174.025	-7.37258	-59.5471	-162.727	23.484	-45.1865	-145.993	8.34527	-67.6866	-136.849	-14.7909	-52.2812	-179.412	8.75815	-56.1982	-160.8	-5.61286	-75.2386	-146.667	-26.0752	-53.5963	-180.317	-9.50942	-58.2424	-162.048	-27.5362	-58.7433	-160.479	-31.105	-30.9309	-191.588	-26.2358	-52.2481	-168.013	-34.8293	-50.3588	-164.633	-36.018	-25.1126	-198.285	-9.22627	-9.88894	-194.929	-20.685	16.7181	-180.124	-1.86735	11.6186	
257	2.14167	-142.846	-11.8909	8.03763	-135.894	0.167076	-23.7686	-148.752	1.4115	-42.1383	-169.828	-6.8793	-57.1064	-158.215	23.607	-49.9557	-148.677	4.15917	-68.5397	-139.026	-16.8202	-55.7569	-172.398	13.432	-57.0459	-158.458	-9.97214	-74.4259	-146.26	-27.1749	-52.4759	-183.696	-6.84356	-55.2118	-164.455	-27.266	-60.8942	-158.961	-30.8683	-33.4722	-192.365	-23.984	-51.4431	-170.845	-36.569	-49.092	-167	-39.21	-23.8973	-196.28	-6.07298	-10.5701	-195.482	-19.5602	17.1285	-177.047	0.689647	6.63718	
258	2.15	-143.416	-14.5435	5.78312	-133.034	-9.19911	-21.8934	-142.088	-1.1174	-49.1462	-161.987	-4.9328	-62.9287	-157.163	21.4568	-48.7605	-149.04	6.16905	-70.1708	-138.529	-17.4412	-57.4887	-173.365	11.4479	-57.464	-155.667	-9.68711	-74.1727	-152.537	-30.9973	-49.5392	-180.78	-5.72115	-58.0704	-162.628	-25.9637	-61.1395	-162.703	-34.4876	-31.8824	-191.048	-19.0737	-53.2955	-173.37	-37.7817	-51.2693	-169.261	-37.713	-29.5244	-196.604	-4.90059	-7.68227	-191.51	-15.4874	16.4524	-173.105	-0.351058	8.64366	
259	2.15833	-139.916	-15.355	0.174427	-129.522	-16.0642	-28.6493	-134.247	-9.34241	-53.8231	-144.595	-11.7471	-75.4475	-156.276	23.6712	-47.9904	-144.493	11.5576	-70.5881	-139.098	-14.01	-54.1917	-170.357	13.6719	-57.6407	-159.597	-7.10546	-75.3234	-153.217	-27.4601	-45.7871	-183.691	-3.21016	-59.1928	-169.126	-22.4391	-65.7929	-161.557	-32.825	-37.3366	-195.37	-13.0908	-49.4225	-179.752	-33.5191	-56.5148	-168.414	-35.0351	-32.2072	-196.494	-2.68406	-5.45662	-189.815	-15.3074	16.8564	-166.752	3.63813	9.57939	
260	2.16667	-140.858	-16.9877	-1.95012	-128.82	-18.8304	-30.929	-130.408	-14.6663	-54.3097	-138.626	-15.7048	-74.9846	-153.739	23.1673	-52.1897	-148.512	9.04829	-72.1653	-139.818	-16.0325	-54.46	-168.943	14.8543	-57.9508	-159.544	-5.18728	-77.8894	-152.618	-26.9271	-50.4346	-181.675	1.91173	-56.46	-168.974	-17.547	-70.4227	-162.759	-33.9272	-47.4455	-195.334	-11.87	-56.1801	-181.39	-26.64	-63.4997	-166.553	-36.3739	-39.1446	-194.329	-2.26802	-7.64672	-190.199	-14.2243	15.4701	-169.146	0.561607	6.93132	
261	2.175	-140.097	-18.7373	-0.0242178	-127.869	-20.9311	-31.5755	-130.252	-15.8996	-57.3144	-136.688	-17.026	-78.1978	-147.921	23.2984	-53.5046	-141.647	6.04728	-75.0775	-142.303	-18.4735	-58.0357	-168.51	16.3549	-61.3148	-161.869	-5.05289	-81.8286	-155.484	-27.505	-62.3315	-184.732	2.64529	-58.4689	-172.96	-18.2629	-76.4767	-161.116	-34.5662	-57.0561	-196.749	-8.5928	-53.0406	-184.029	-23.7596	-67.7473	-167.746	-36.9086	-50.3755	-190.809	0.0293358	-12.6636	-191.145	-11.5677	11.8567	-163.021	3.4704	6.65232	
